<svg xmlns="http://www.w3.org/2000/svg" style="display:none">
<symbol id="action-archive" viewBox="0 0 24 24" fill="none" stroke="currentColor" stroke-width="1.8" stroke-linecap="round" stroke-linejoin="round"><path d="M4 7h16v3H4V7Z"/><path d="M6 10v8.5h12V10"/><path d="M9.5 13h5"/></symbol>
<symbol id="action-arrow-left" viewBox="0 0 24 24" fill="none" stroke="currentColor" stroke-width="1.8" stroke-linecap="round" stroke-linejoin="round"><path d="M19 12H5"/><path d="m11 6-6 6 6 6"/></symbol>
<symbol id="action-arrow-right" viewBox="0 0 24 24" fill="none" stroke="currentColor" stroke-width="1.8" stroke-linecap="round" stroke-linejoin="round"><path d="M5 12h14"/><path d="m13 6 6 6-6 6"/></symbol>
<symbol id="action-chevron-down" viewBox="0 0 24 24" fill="none" stroke="currentColor" stroke-width="1.8" stroke-linecap="round" stroke-linejoin="round"><path d="m6 9 6 6 6-6"/></symbol>
<symbol id="action-download" viewBox="0 0 24 24" fill="none" stroke="currentColor" stroke-width="1.8" stroke-linecap="round" stroke-linejoin="round"><path d="M12 4v10"/><path d="m8 10 4 4 4-4"/><path d="M5 19h14"/></symbol>
<symbol id="action-duplicate" viewBox="0 0 24 24" fill="none" stroke="currentColor" stroke-width="1.8" stroke-linecap="round" stroke-linejoin="round"><rect x="8" y="8" width="11" height="11" rx="2"/><path d="M5 16V5h11"/></symbol>
<symbol id="action-edit-pencil" viewBox="0 0 24 24" fill="none" stroke="currentColor" stroke-width="1.8" stroke-linecap="round" stroke-linejoin="round"><path d="M4.5 16.5 4 20l3.5-.5L18.7 8.3l-3-3L4.5 16.5Z"/><path d="m14.7 6.3 3 3"/></symbol>
<symbol id="action-more-vertical" viewBox="0 0 24 24" fill="none" stroke="currentColor" stroke-width="1.8" stroke-linecap="round" stroke-linejoin="round"><circle cx="12" cy="5.5" r="1"/><circle cx="12" cy="12" r="1"/><circle cx="12" cy="18.5" r="1"/></symbol>
<symbol id="action-plus" viewBox="0 0 24 24" fill="none" stroke="currentColor" stroke-width="1.8" stroke-linecap="round" stroke-linejoin="round"><path d="M12 5v14M5 12h14"/></symbol>
<symbol id="action-save" viewBox="0 0 24 24" fill="none" stroke="currentColor" stroke-width="1.8" stroke-linecap="round" stroke-linejoin="round"><path d="M5 4h11.5L19 6.5V20H5V4Z"/><path d="M8 4v6h7V4"/><path d="M8 20v-6h8v6"/></symbol>
<symbol id="action-trash" viewBox="0 0 24 24" fill="none" stroke="currentColor" stroke-width="1.8" stroke-linecap="round" stroke-linejoin="round"><path d="M5 7h14"/><path d="M9 7V4.8h6V7"/><path d="M7 7l.8 13h8.4L17 7"/><path d="M10.5 10.5v6M13.5 10.5v6"/></symbol>
<symbol id="action-upload" viewBox="0 0 24 24" fill="none" stroke="currentColor" stroke-width="1.8" stroke-linecap="round" stroke-linejoin="round"><path d="M12 20V10"/><path d="m8 14 4-4 4 4"/><path d="M5 5h14"/></symbol>
<symbol id="app-logo-book" viewBox="0 0 24 24" fill="none" stroke="currentColor" stroke-width="1.8" stroke-linecap="round" stroke-linejoin="round"><path d="M4.2 5.2h5.1c1.5 0 2.7 1.2 2.7 2.7v11.2c0-1.5-1.2-2.7-2.7-2.7H4.2V5.2Z"/><path d="M19.8 5.2h-5.1c-1.5 0-2.7 1.2-2.7 2.7v11.2c0-1.5 1.2-2.7 2.7-2.7h5.1V5.2Z"/><path d="M7 8.2h2.3M14.7 8.2H17M7 11.2h2.3M14.7 11.2H17"/></symbol>
<symbol id="brand-shield-book" viewBox="0 0 24 24" fill="none" stroke="currentColor" stroke-width="1.8" stroke-linecap="round" stroke-linejoin="round"><path d="M12 2.6 4.5 5.4v5.7c0 4.8 3.2 8.4 7.5 10.3 4.3-1.9 7.5-5.5 7.5-10.3V5.4L12 2.6Z"/><path d="M8.1 8.1h2.7c.7 0 1.2.5 1.2 1.2v6.4c0-.7-.5-1.2-1.2-1.2H8.1V8.1Z"/><path d="M15.9 8.1h-2.7c-.7 0-1.2.5-1.2 1.2v6.4c0-.7.5-1.2 1.2-1.2h2.7V8.1Z"/></symbol>
<symbol id="content-syllabus" viewBox="0 0 24 24" fill="none" stroke="currentColor" stroke-width="1.8" stroke-linecap="round" stroke-linejoin="round"><path d="M5.5 4.5h13v15h-13v-15Z"/><path d="M8.5 8h7M8.5 11h7M8.5 14h4"/><path d="M5.5 4.5 8 2.8h10.5"/></symbol>
<symbol id="control-drag-handle" viewBox="0 0 24 24" fill="none" stroke="currentColor" stroke-width="1.8" stroke-linecap="round" stroke-linejoin="round"><circle cx="9" cy="6" r=".8"/><circle cx="15" cy="6" r=".8"/><circle cx="9" cy="12" r=".8"/><circle cx="15" cy="12" r=".8"/><circle cx="9" cy="18" r=".8"/><circle cx="15" cy="18" r=".8"/></symbol>
<symbol id="course-agriculture-plant" viewBox="0 0 24 24" fill="none" stroke="currentColor" stroke-width="1.8" stroke-linecap="round" stroke-linejoin="round"><path d="M12 20V9"/><path d="M12 13.4C8.7 13.4 6.1 10.8 6.1 7.5c3.3 0 5.9 2.6 5.9 5.9Z"/><path d="M12 15.2c3.3 0 5.9-2.6 5.9-5.9-3.3 0-5.9 2.6-5.9 5.9Z"/><path d="M7 20h10"/></symbol>
<symbol id="course-civics-columns" viewBox="0 0 24 24" fill="none" stroke="currentColor" stroke-width="1.8" stroke-linecap="round" stroke-linejoin="round"><path d="M4 10h16"/><path d="M5.4 19h13.2"/><path d="M6.4 10v7M10.1 10v7M13.9 10v7M17.6 10v7"/><path d="m3.8 8 8.2-4.8L20.2 8H3.8Z"/></symbol>
<symbol id="course-ela-open-book" viewBox="0 0 24 24" fill="none" stroke="currentColor" stroke-width="1.8" stroke-linecap="round" stroke-linejoin="round"><path d="M4 5.5h5.2a2.8 2.8 0 0 1 2.8 2.8v10.2a2.8 2.8 0 0 0-2.8-2.8H4V5.5Z"/><path d="M20 5.5h-5.2A2.8 2.8 0 0 0 12 8.3v10.2a2.8 2.8 0 0 1 2.8-2.8H20V5.5Z"/><path d="M7 8.6h2M15 8.6h2M7 11.5h2M15 11.5h2"/></symbol>
<symbol id="course-environment-water-drop" viewBox="0 0 24 24" fill="none" stroke="currentColor" stroke-width="1.8" stroke-linecap="round" stroke-linejoin="round"><path d="M12 3.2S6.2 10 6.2 14a5.8 5.8 0 0 0 11.6 0C17.8 10 12 3.2 12 3.2Z"/></symbol>
<symbol id="course-history-usa" viewBox="0 0 24 24" fill="none" stroke="currentColor" stroke-width="1.8" stroke-linecap="round" stroke-linejoin="round"><path d="M3.3 9.4 5 7.8l2 .5 1.2-.8 2 .8 2.1-.8 1.2.7 2.2-.4 2.2 1.4 2.8.1-.6 2.4 1 1.4-2.1 1.2-.8 2.1-2.5.2-1.8 2.2-2.5-.3-2.4 1-1.5-1.8-2.6-.7.2-2.6-1.2-1.9.8-3.1Z"/></symbol>
<symbol id="course-statistics-bars" viewBox="0 0 24 24" fill="none" stroke="currentColor" stroke-width="1.8" stroke-linecap="round" stroke-linejoin="round"><path d="M5 19V5"/><path d="M5 19h14"/><rect x="7.5" y="12" width="2.5" height="4.5" rx=".6"/><rect x="11" y="8.5" width="2.5" height="8" rx=".6"/><rect x="14.5" y="10.5" width="2.5" height="6" rx=".6"/></symbol>
<symbol id="coverage-shield-star" viewBox="0 0 24 24" fill="none" stroke="currentColor" stroke-width="1.8" stroke-linecap="round" stroke-linejoin="round"><path d="M12 2.8 4.8 5.4v5.8c0 4.6 3 8 7.2 10 4.2-2 7.2-5.4 7.2-10V5.4L12 2.8Z"/><path d="m12 7.3 1.1 2.3 2.6.4-1.9 1.8.5 2.6-2.3-1.2-2.3 1.2.5-2.6L8.3 10l2.6-.4L12 7.3Z"/></symbol>
<symbol id="form-assignment-clipboard" viewBox="0 0 24 24" fill="none" stroke="currentColor" stroke-width="1.8" stroke-linecap="round" stroke-linejoin="round"><path d="M9 4h6l.5 2H18a1.8 1.8 0 0 1 1.8 1.8V19A1.8 1.8 0 0 1 18 20.8H6A1.8 1.8 0 0 1 4.2 19V7.8A1.8 1.8 0 0 1 6 6h2.5L9 4Z"/><path d="M8.5 11.5l2 2 4.8-5"/><path d="M8.5 16.5h7"/></symbol>
<symbol id="form-course-description-document" viewBox="0 0 24 24" fill="none" stroke="currentColor" stroke-width="1.8" stroke-linecap="round" stroke-linejoin="round"><path d="M6.5 3.8h7.7l3.3 3.4v13H6.5V3.8Z"/><path d="M14.2 3.8v3.4h3.3"/><path d="M9 11h6M9 14h6M9 17h4"/></symbol>
<symbol id="form-course-identity" viewBox="0 0 24 24" fill="none" stroke="currentColor" stroke-width="1.8" stroke-linecap="round" stroke-linejoin="round"><rect x="4" y="5" width="16" height="14" rx="2"/><path d="M8 9h5.5M8 12h8M8 15h5"/><circle cx="17" cy="9" r="1"/></symbol>
<symbol id="form-curriculum-target" viewBox="0 0 24 24" fill="none" stroke="currentColor" stroke-width="1.8" stroke-linecap="round" stroke-linejoin="round"><circle cx="12" cy="12" r="8.5"/><circle cx="12" cy="12" r="5"/><circle cx="12" cy="12" r="1.6"/><path d="M17.8 6.2 20.5 3.5M16.8 7.2l1.3-3.9 2.6-.1-.1 2.6-3.8 1.4Z"/></symbol>
<symbol id="form-lessons-book" viewBox="0 0 24 24" fill="none" stroke="currentColor" stroke-width="1.8" stroke-linecap="round" stroke-linejoin="round"><path d="M4.2 5h5.5A2.3 2.3 0 0 1 12 7.3v12.2a2.3 2.3 0 0 0-2.3-2.3H4.2V5Z"/><path d="M19.8 5h-5.5A2.3 2.3 0 0 0 12 7.3v12.2a2.3 2.3 0 0 1 2.3-2.3h5.5V5Z"/><path d="M7 8.5h2M15 8.5h2"/></symbol>
<symbol id="form-objectives-target" viewBox="0 0 24 24" fill="none" stroke="currentColor" stroke-width="1.8" stroke-linecap="round" stroke-linejoin="round"><circle cx="12" cy="12" r="8"/><path d="M12 7.5v4.6l3.2 1.9"/><path d="M4 12h2M18 12h2M12 4v2M12 18v2"/></symbol>
<symbol id="form-parent-notes-message" viewBox="0 0 24 24" fill="none" stroke="currentColor" stroke-width="1.8" stroke-linecap="round" stroke-linejoin="round"><path d="M4.2 5.5h15.6v10.8H9.7L5.2 20v-3.7h-1V5.5Z"/><path d="M8 9.5h8M8 12.5h5"/></symbol>
<symbol id="import-bundle-zip" viewBox="0 0 24 24" fill="none" stroke="currentColor" stroke-width="1.8" stroke-linecap="round" stroke-linejoin="round"><path d="M6.2 3.8h7.8l3.8 3.8v12.6H6.2V3.8Z"/><path d="M14 3.8v3.8h3.8"/><path d="M9 8h2M9 10h2M9 12h2"/><path d="M12 15h3M13.5 13.5v3"/></symbol>
<symbol id="lesson-document" viewBox="0 0 24 24" fill="none" stroke="currentColor" stroke-width="1.8" stroke-linecap="round" stroke-linejoin="round"><path d="M6.5 3.8h7.7l3.3 3.4v13H6.5V3.8Z"/><path d="M14.2 3.8v3.4h3.3"/><path d="M9 11h6M9 14h6M9 17h3"/></symbol>
<symbol id="metric-calendar" viewBox="0 0 24 24" fill="none" stroke="currentColor" stroke-width="1.8" stroke-linecap="round" stroke-linejoin="round"><rect x="4" y="5.8" width="16" height="14" rx="2"/><path d="M8 3.8v4M16 3.8v4M4 10h16"/><path d="M8 13h2M12 13h2M16 13h1M8 16h2M12 16h2"/></symbol>
<symbol id="metric-credit-award" viewBox="0 0 24 24" fill="none" stroke="currentColor" stroke-width="1.8" stroke-linecap="round" stroke-linejoin="round"><circle cx="12" cy="9" r="5"/><path d="m9 13.2-1.2 6 4.2-2.4 4.2 2.4-1.2-6"/><path d="m9.7 9 1.5 1.5 3.1-3.2"/></symbol>
<symbol id="metric-modules-cube" viewBox="0 0 24 24" fill="none" stroke="currentColor" stroke-width="1.8" stroke-linecap="round" stroke-linejoin="round"><path d="m12 3.8 7.2 4.1v8.2L12 20.2l-7.2-4.1V7.9L12 3.8Z"/><path d="m4.8 7.9 7.2 4.2 7.2-4.2M12 12.1v8.1"/></symbol>
<symbol id="metric-progress-ring" viewBox="0 0 24 24" fill="none" stroke="currentColor" stroke-width="1.8" stroke-linecap="round" stroke-linejoin="round"><circle cx="12" cy="12" r="8" opacity=".35"/><path d="M12 4a8 8 0 0 1 8 8"/><path d="m12 8v4l2.5 2"/></symbol>
<symbol id="nav-courses-book" viewBox="0 0 24 24" fill="none" stroke="currentColor" stroke-width="1.8" stroke-linecap="round" stroke-linejoin="round"><path d="M4.2 5h5.5A2.3 2.3 0 0 1 12 7.3v12.2a2.3 2.3 0 0 0-2.3-2.3H4.2V5Z"/><path d="M19.8 5h-5.5A2.3 2.3 0 0 0 12 7.3v12.2a2.3 2.3 0 0 1 2.3-2.3h5.5V5Z"/></symbol>
<symbol id="nav-home" viewBox="0 0 24 24" fill="none" stroke="currentColor" stroke-width="1.8" stroke-linecap="round" stroke-linejoin="round"><path d="m3.5 11.3 8.5-7.1 8.5 7.1"/><path d="M5.7 10.1v9.2h4.6v-5.5h3.4v5.5h4.6v-9.2"/></symbol>
<symbol id="nav-michigan-plans-crown" viewBox="0 0 24 24" fill="none" stroke="currentColor" stroke-width="1.8" stroke-linecap="round" stroke-linejoin="round"><path d="M4 17.5h16M5.2 16.8 4.3 8.2l4.6 3.6L12 6l3.1 5.8 4.6-3.6-.9 8.6H5.2Z"/><path d="M8.6 20h6.8"/></symbol>
<symbol id="nav-requirements-clipboard" viewBox="0 0 24 24" fill="none" stroke="currentColor" stroke-width="1.8" stroke-linecap="round" stroke-linejoin="round"><path d="M9 4.2h6l.6 2H18a1.8 1.8 0 0 1 1.8 1.8v11A1.8 1.8 0 0 1 18 20.8H6A1.8 1.8 0 0 1 4.2 19V8A1.8 1.8 0 0 1 6 6.2h2.4L9 4.2Z"/><path d="M8.5 10.3h7M8.5 13.5h7M8.5 16.7h4.5"/></symbol>
<symbol id="nav-setup-gear" viewBox="0 0 24 24" fill="none" stroke="currentColor" stroke-width="1.8" stroke-linecap="round" stroke-linejoin="round"><path d="M12 8.2a3.8 3.8 0 1 0 0 7.6 3.8 3.8 0 0 0 0-7.6Z"/><path d="M12 2.9v2.2M12 18.9v2.2M4.2 6.1l1.6 1.6M18.2 16.3l1.6 1.6M2.9 12h2.2M18.9 12h2.2M4.2 17.9l1.6-1.6M18.2 7.7l1.6-1.6"/></symbol>
<symbol id="nav-student-preview-eye" viewBox="0 0 24 24" fill="none" stroke="currentColor" stroke-width="1.8" stroke-linecap="round" stroke-linejoin="round"><path d="M2.8 12s3.4-6 9.2-6 9.2 6 9.2 6-3.4 6-9.2 6-9.2-6-9.2-6Z"/><circle cx="12" cy="12" r="3"/></symbol>
<symbol id="objective-check" viewBox="0 0 24 24" fill="none" stroke="currentColor" stroke-width="1.8" stroke-linecap="round" stroke-linejoin="round"><rect x="4.5" y="4.5" width="15" height="15" rx="3"/><path d="m8.5 12.2 2.3 2.3 4.9-5"/></symbol>
<symbol id="profile-user" viewBox="0 0 24 24" fill="none" stroke="currentColor" stroke-width="1.8" stroke-linecap="round" stroke-linejoin="round"><circle cx="12" cy="8.2" r="3.8"/><path d="M4.8 20a7.2 7.2 0 0 1 14.4 0"/></symbol>
<symbol id="report-table" viewBox="0 0 24 24" fill="none" stroke="currentColor" stroke-width="1.8" stroke-linecap="round" stroke-linejoin="round"><rect x="4" y="5" width="16" height="14" rx="2"/><path d="M4 9h16M4 13h16M9 5v14M15 5v14"/></symbol>
<symbol id="status-alert-triangle" viewBox="0 0 24 24" fill="none" stroke="currentColor" stroke-width="1.8" stroke-linecap="round" stroke-linejoin="round"><path d="M12 3.8 21 19H3L12 3.8Z"/><path d="M12 9v4.5M12 16.8v.2"/></symbol>
<symbol id="status-check-circle" viewBox="0 0 24 24" fill="none" stroke="currentColor" stroke-width="1.8" stroke-linecap="round" stroke-linejoin="round"><circle cx="12" cy="12" r="8.5"/><path d="m8.4 12.3 2.2 2.2 5-5"/></symbol>
<symbol id="status-info-circle" viewBox="0 0 24 24" fill="none" stroke="currentColor" stroke-width="1.8" stroke-linecap="round" stroke-linejoin="round"><circle cx="12" cy="12" r="8.5"/><path d="M12 10.5V16"/><path d="M12 7.5v.1"/></symbol>
<symbol id="student-banner-people" viewBox="0 0 24 24" fill="none" stroke="currentColor" stroke-width="1.8" stroke-linecap="round" stroke-linejoin="round"><circle cx="8.4" cy="8" r="2.8"/><path d="M3.5 18.5a5 5 0 0 1 9.8 0"/><circle cx="16.4" cy="8.8" r="2.3"/><path d="M14.2 15.1a4.5 4.5 0 0 1 6.3 3.4"/></symbol>
<symbol id="student-hero-graduation-cap" viewBox="0 0 24 24" fill="none" stroke="currentColor" stroke-width="1.8" stroke-linecap="round" stroke-linejoin="round"><path d="m3 9 9-4 9 4-9 4-9-4Z"/><path d="M7 11.1v4.2c2.8 2 7.2 2 10 0v-4.2"/><path d="M20 9v5.5"/><path d="M20 16.8v.2"/></symbol>
<symbol id="utility-bell" viewBox="0 0 24 24" fill="none" stroke="currentColor" stroke-width="1.8" stroke-linecap="round" stroke-linejoin="round"><path d="M18.2 10.2a6.2 6.2 0 1 0-12.4 0c0 6.1-2 6.6-2 6.6h16.4s-2-.5-2-6.6Z"/><path d="M9.7 19.2a2.6 2.6 0 0 0 4.6 0"/></symbol>
<symbol id="utility-search" viewBox="0 0 24 24" fill="none" stroke="currentColor" stroke-width="1.8" stroke-linecap="round" stroke-linejoin="round"><circle cx="10.7" cy="10.7" r="6.4"/><path d="m16 16 4.2 4.2"/></symbol>
</svg>
